<?xml version="1.0" encoding="utf-8"?>
<!-- Generator: Adobe Illustrator 27.8.1, SVG Export Plug-In . SVG Version: 6.00 Build 0)  -->
<svg version="1.1" id="Lager_1" xmlns="http://www.w3.org/2000/svg" xmlns:xlink="http://www.w3.org/1999/xlink" x="0px" y="0px"
	 viewBox="0 0 1920 1080" style="enable-background:new 0 0 1920 1080;" xml:space="preserve">
<style type="text/css">
	.st0{fill:#EE7E5D;}
	.st1{fill:#FDF29A;}
	.st2{fill:#FED77E;}
	.st3{fill:#F7B770;}
	.st4{stroke:#000000;stroke-miterlimit:10;}
	.st5{fill:none;stroke:#F7B770;stroke-width:10;stroke-linecap:round;stroke-miterlimit:10;}
</style>
<g>
	<circle class="st0" cx="1046" cy="629" r="296.5"/>
</g>
<g>
	<rect x="24" y="89" class="st1" width="97" height="68"/>
</g>
<g>
	<rect x="24" y="198" class="st2" width="97" height="62"/>
</g>
<g>
	<rect x="24" y="305" class="st3" width="97" height="59"/>
</g>
<g>
	<rect x="24" y="405" class="st0" width="97" height="63"/>
</g>
<g>
	<circle class="st2" cx="871" cy="447" r="88"/>
</g>
<g>
	<circle class="st3" cx="871" cy="447" r="62"/>
</g>
<g>
	<circle class="st2" cx="1221" cy="447" r="88"/>
</g>
<g>
	<circle class="st3" cx="1221" cy="447" r="62"/>
</g>
<g>
	<circle class="st2" cx="1046.25" cy="629.25" r="241.25"/>
</g>
<circle class="st4" cx="942.5" cy="545.5" r="25"/>
<circle class="st4" cx="1159.5" cy="545.5" r="25"/>
<g>
	<path class="st1" d="M1191,758.5c0,80.36-65.14,145.5-145.5,145.5S900,838.86,900,758.5c0-60.6,37.04-112.54,89.71-134.42
		c17.18-7.14,36.03-11.08,55.79-11.08c19.34,0,37.79,3.77,54.67,10.62C1153.44,645.23,1191,697.48,1191,758.5z"/>
</g>
<g>
	<path class="st0" d="M1102,638c0,31.48-25.52,57-57,57s-57-25.52-57-57c0-4.8,0.59-9.47,1.71-13.92
		c17.18-7.14,36.03-11.08,55.79-11.08c19.34,0,37.79,3.77,54.67,10.62C1101.36,628.21,1102,633.03,1102,638z"/>
</g>
<path class="st5" d="M1047.61,758.51c0,30.65-23.42,55.49-52.3,55.49S943,789.16,943,758.51"/>
<path class="st5" d="M1151,759.28c0,29.84-23.07,54.03-51.53,54.03c-28.46,0-51.53-24.19-51.53-54.03"/>
<g>
	<ellipse class="st0" cx="1045" cy="408" rx="97" ry="76"/>
</g>
</svg>
